<?xml version="1.0" encoding="UTF-8"?>
<svg xmlns="http://www.w3.org/2000/svg" xmlns:xlink="http://www.w3.org/1999/xlink" width="60px" height="43px" viewBox="0 0 60 43" version="1.1">
<g id="surface1">
<path style=" stroke:none;fill-rule:evenodd;fill:rgb(7.45098%,70.980392%,92.54902%);fill-opacity:1;" d="M 46.070312 21.5 C 46.070312 30.40625 38.875 37.625 30 37.625 C 21.125 37.625 13.929688 30.40625 13.929688 21.5 C 13.929688 12.59375 21.125 5.375 30 5.375 C 38.875 5.375 46.070312 12.59375 46.070312 21.5 Z M 46.070312 21.5 "/>
<path style=" stroke:none;fill-rule:evenodd;fill:rgb(100%,100%,100%);fill-opacity:1;" d="M 31.207031 18.375 L 34.820312 16.257812 L 34.820312 20.492188 Z M 34.820312 27.445312 L 30 30.269531 L 25.179688 27.445312 L 25.179688 22.507812 L 30 25.328125 L 34.820312 22.507812 Z M 25.179688 16.257812 L 28.792969 18.375 L 25.179688 20.492188 Z M 30.601562 19.382812 L 34.21875 21.5 L 30.601562 23.617188 Z M 29.398438 23.617188 L 25.78125 21.5 L 29.398438 19.382812 Z M 34.21875 15.25 L 30 17.671875 L 25.78125 15.25 L 30 12.730469 Z M 23.972656 14.847656 L 23.972656 28.050781 L 30 31.476562 L 36.027344 28.050781 L 36.027344 14.847656 L 30 11.421875 Z M 23.972656 14.847656 "/>
</g>
</svg>


