<?xml version="1.0" encoding="UTF-8"?>
<svg xmlns="http://www.w3.org/2000/svg" xmlns:xlink="http://www.w3.org/1999/xlink" width="84px" height="60px" viewBox="0 0 83 60" version="1.1">
<g id="surface1">
<path style=" stroke:none;fill-rule:evenodd;fill:rgb(7.45098%,70.980392%,92.54902%);fill-opacity:1;" d="M 63.730469 30 C 63.730469 42.425781 53.777344 52.5 41.5 52.5 C 29.222656 52.5 19.269531 42.425781 19.269531 30 C 19.269531 17.574219 29.222656 7.5 41.5 7.5 C 53.777344 7.5 63.730469 17.574219 63.730469 30 Z M 63.730469 30 "/>
<path style=" stroke:none;fill-rule:evenodd;fill:rgb(100%,100%,100%);fill-opacity:1;" d="M 43.167969 25.640625 L 48.167969 22.683594 L 48.167969 28.59375 Z M 48.167969 38.296875 L 41.5 42.238281 L 34.832031 38.296875 L 34.832031 31.40625 L 41.5 35.339844 L 48.167969 31.40625 Z M 34.832031 22.683594 L 39.832031 25.640625 L 34.832031 28.59375 Z M 42.332031 27.046875 L 47.335938 30 L 42.332031 32.953125 Z M 40.667969 32.953125 L 35.664062 30 L 40.667969 27.046875 Z M 47.335938 21.277344 L 41.5 24.660156 L 35.664062 21.277344 L 41.5 17.761719 Z M 33.164062 20.71875 L 33.164062 39.140625 L 41.5 43.921875 L 49.835938 39.140625 L 49.835938 20.71875 L 41.5 15.9375 Z M 33.164062 20.71875 "/>
</g>
</svg>

